<mxfile host="www.draw.io" modified="2020-03-20T16:01:37.659Z" agent="Mozilla/5.0 (X11; Linux x86_64) AppleWebKit/537.36 (KHTML, like Gecko) Chrome/80.0.3987.149 Safari/537.36" etag="E2aDXAfTyV5XkKOsoi63" version="12.8.8" type="gitlab">
  <diagram id="1HnbREj6vvbbwYBFSY89" name="User interface - sketch">
    <mxGraphModel dx="1422" dy="774" grid="1" gridSize="10" guides="1" tooltips="1" connect="1" arrows="1" fold="1" page="1" pageScale="1" pageWidth="827" pageHeight="1169" math="0" shadow="0">
      <root>
        <mxCell id="0" />
        <mxCell id="1" parent="0" />
        <mxCell id="fZ8jkpQ4Zm5RD2qn7INK-1" value="" style="rounded=1;whiteSpace=wrap;html=1;" vertex="1" parent="1">
          <mxGeometry x="20" y="20" width="180" height="310" as="geometry" />
        </mxCell>
        <mxCell id="fZ8jkpQ4Zm5RD2qn7INK-5" value="" style="rounded=1;whiteSpace=wrap;html=1;" vertex="1" parent="1">
          <mxGeometry x="30" y="87" width="160" height="30" as="geometry" />
        </mxCell>
        <mxCell id="fZ8jkpQ4Zm5RD2qn7INK-6" value="" style="rounded=1;whiteSpace=wrap;html=1;" vertex="1" parent="1">
          <mxGeometry x="30" y="127" width="160" height="30" as="geometry" />
        </mxCell>
        <mxCell id="fZ8jkpQ4Zm5RD2qn7INK-7" value="" style="rounded=1;whiteSpace=wrap;html=1;" vertex="1" parent="1">
          <mxGeometry x="30" y="167" width="160" height="30" as="geometry" />
        </mxCell>
        <mxCell id="fZ8jkpQ4Zm5RD2qn7INK-8" value="" style="rounded=1;whiteSpace=wrap;html=1;" vertex="1" parent="1">
          <mxGeometry x="30" y="207" width="160" height="30" as="geometry" />
        </mxCell>
        <mxCell id="fZ8jkpQ4Zm5RD2qn7INK-9" value="&lt;font style=&quot;font-size: 23px&quot;&gt;+&lt;/font&gt;" style="ellipse;whiteSpace=wrap;html=1;aspect=fixed;" vertex="1" parent="1">
          <mxGeometry x="150" y="280" width="40" height="40" as="geometry" />
        </mxCell>
        <mxCell id="fZ8jkpQ4Zm5RD2qn7INK-11" value="" style="rounded=1;whiteSpace=wrap;html=1;" vertex="1" parent="1">
          <mxGeometry x="30" y="47" width="160" height="30" as="geometry" />
        </mxCell>
      </root>
    </mxGraphModel>
  </diagram>
</mxfile>
